:SAMPLES-PER-SECOND 24
:FULLY-SPECIFIED
:DEGREES
163
root  -0.649483 40.9778 66.2863 171.611 61.8654 175.259
RightUpLeg  2.46088 -16.2624 -16.6443
RightLeg  22.1649 4.78866 1.93321
RightFoot  5.19362 -2.04092 14.2685
RightToes  -1.74623e-010 0 -2.59999e-017
Spine  5.75188 2.87737 1.53436
Spine1  10.9343 3.81364 -3.16201
HEad  -19.1988 44.4803 -22.7841
LeftShoulder1  1.40714 -2.93262 -15.019
LeftArm  12.9964 19.3863 -38.9149
LeftForeArm  46.9389 -75.404 -41.9862
LeftHand  -0.011618 4.09431 -1.21891
RightShoulder  2.42898 4.80256 23.0711
RightArm  10.6728 -23.1469 40.0563
RightForeArm  141.17 66.4934 154.212
RightHand  -0.129265 -7.40131 4.40073
LeftUpLeg  -4.81393 10.3832 7.90296
LeftLeg  20.4951 -2.15383 -0.534272
LeftFoot  10.1022 1.57213 -8.64355
LeftToes  -6.27559e-011 -2.10356e-011 8.24929e-012
164
root  -0.743795 39.545 66.528 170.298 61.9839 173.809
RightUpLeg  0.714739 -17.6667 -17.7257
RightLeg  27.9806 5.88095 3.15551
RightFoot  -5.65063 -0.783962 14.6606
RightToes  -1.74623e-010 0 -2.59999e-017
Spine  7.1141 3.01468 1.14071
Spine1  10.1095 3.97146 -3.82768
HEad  -19.8705 43.8306 -23.0421
LeftShoulder1  1.37496 -2.8809 -14.6601
LeftArm  12.4878 13.5492 -37.1509
LeftForeArm  42.7464 -74.0121 -37.4076
LeftHand  -0.0412557 3.25911 1.16703
RightShoulder  2.34519 4.78941 22.0432
RightArm  8.36696 -18.7451 37.7909
RightForeArm  137.846 68.6111 151.198
RightHand  -0.0948517 -6.40189 5.18095
LeftUpLeg  -6.6562 10.3598 7.61206
LeftLeg  26.1027 -1.87862 -0.641378
LeftFoot  0.203885 0.974674 -9.63417
LeftToes  -6.27559e-011 -2.10356e-011 8.24929e-012
165
root  -0.948985 37.9407 66.715 171.612 61.321 174.734
RightUpLeg  -2.09592 -20.1772 -17.8343
RightLeg  35.0935 6.50776 4.65625
RightFoot  -16.9289 0.484293 12.4752
RightToes  -1.74623e-010 0 -2.59999e-017
Spine  7.12271 2.30234 1.7458
Spine1  10.9077 3.23922 -3.92414
HEad  -22.6399 43.9651 -25.1369
LeftShoulder1  1.40033 -2.7186 -15.7248
LeftArm  10.5556 6.04392 -34.7826
LeftForeArm  35.3107 -70.9412 -30.3629
LeftHand  -0.0240821 5.28421 3.03512
RightShoulder  2.33671 4.65814 22.4236
RightArm  5.52479 -9.33319 34.1836
RightForeArm  120.119 73.8949 138.117
RightHand  -0.162312 -8.50649 4.02644
LeftUpLeg  -11.008 10.2678 8.02652
LeftLeg  34.1433 -1.32511 -0.590715
LeftFoot  -11.4159 0.0676876 -9.15217
LeftToes  -6.27559e-011 -2.10356e-011 8.24929e-012
166
root  -1.13754 37.0193 66.7681 172.953 60.6465 176.597
RightUpLeg  -3.74389 -22.0713 -17.7664
RightLeg  40.2446 6.8666 5.92428
RightFoot  -21.1235 0.815887 11.1822
RightToes  -1.74623e-010 0 -2.59999e-017
Spine  6.8866 1.35394 2.03075
Spine1  13.5832 1.91975 -2.51046
HEad  -28.1128 44.745 -30.3633
LeftShoulder1  1.54226 -2.75176 -18.0555
LeftArm  5.38117 2.11467 -34.9641
LeftForeArm  43.1298 -68.5387 -24.4311
LeftHand  0.0301911 9.78116 2.10675
RightShoulder  2.54473 4.76056 24.7069
RightArm  2.50506 0.545771 32.7559
RightForeArm  94.9497 79.2176 103.535
RightHand  -0.0592175 -12.6985 -0.162195
LeftUpLeg  -14.1151 10.2979 8.92926
LeftLeg  40.2777 -1.63728 -1.08925
LeftFoot  -15.5603 -0.228718 -8.72339
LeftToes  -6.27559e-011 -2.10356e-011 8.24929e-012
167
root  -1.00546 37.3884 66.6151 172.109 60.7114 176.472
RightUpLeg  -2.13968 -21.8299 -18.3536
RightLeg  38.7634 7.04012 5.76349
RightFoot  -18.6057 0.661873 12.4583
RightToes  -1.74623e-010 0 -2.59999e-017
Spine  6.38906 1.34784 1.18129
Spine1  15.6415 1.40481 -1.11136
HEad  -30.6162 45.3822 -33.7368
LeftShoulder1  1.64425 -2.811 -19.5482
LeftArm  1.02931 5.06403 -40.0475
LeftForeArm  63.2869 -69.7975 -23.3454
LeftHand  0.0647218 13.0128 1.9736
RightShoulder  2.85701 5.12749 27.1185
RightArm  -2.69979 -0.679569 36.7207
RightForeArm  99.5152 80.4419 87.658
RightHand  0.46377 -15.5543 -6.11271
LeftUpLeg  -12.4414 11.059 9.10185
LeftLeg  38.9951 -2.31758 -1.61759
LeftFoot  -13.1033 -0.0591561 -8.84029
LeftToes  -6.27559e-011 -2.10356e-011 8.24929e-012
168
root  -0.594609 38.8604 66.2031 170.284 61.0977 174.571
RightUpLeg  1.6312 -19.5538 -18.947
RightLeg  30.7721 6.58685 3.99183
RightFoot  -10.4709 -0.196442 14.6414
RightToes  -1.74623e-010 0 -2.59999e-017
Spine  5.24515 1.68427 0.573651
Spine1  15.1214 1.75068 -1.01123
HEad  -26.5766 47.1223 -31.8066
LeftShoulder1  1.60461 -2.53734 -20.1078
LeftArm  1.35308 13.1338 -44.887
LeftForeArm  71.7644 -73.4443 -29.0574
LeftHand  0.161241 12.0897 4.00441
RightShoulder  3.09769 5.35343 29.0481
RightArm  -6.93297 -11.4016 42.3575
RightForeArm  131.674 79.147 118.669
RightHand  1.06624 -14.9135 -13.5813
LeftUpLeg  -7.43434 12.8329 8.29536
LeftLeg  30.7135 -3.63339 -1.95636
LeftFoot  -5.61938 0.465197 -8.79321
LeftToes  -6.27559e-011 -2.10356e-011 8.24929e-012
169
root  -0.188531 40.5192 65.6996 170.419 61.2823 173.908
RightUpLeg  4.19415 -17.2976 -18.1303
RightLeg  22.1613 2.83276 1.06481
RightFoot  2.01354 -1.75216 14.9975
RightToes  -1.74623e-010 0 -2.59999e-017
Spine  3.11565 1.44973 0.666548
Spine1  13.791 1.67376 -0.873481
HEad  -19.7485 49.8804 -27.4576
LeftShoulder1  1.51859 -2.0778 -20.799
LeftArm  2.73982 22.602 -46.0211
LeftForeArm  71.5834 -76.8166 -40.9426
LeftHand  -0.03261 6.7022 -0.981783
RightShoulder  3.26553 5.45366 30.5609
RightArm  -5.62264 -20.978 44.1401
RightForeArm  134.513 75.2888 136.796
RightHand  0.923137 -13.3241 -13.9181
LeftUpLeg  -3.7245 14.9062 7.90517
LeftLeg  21.9594 -5.91487 -2.26682
LeftFoot  6.68423 1.59104 -10.185
LeftToes  -6.27559e-011 -2.10356e-011 8.24929e-012
170
root  0.0605096 41.5661 65.3572 174.784 61.1602 176.552
RightUpLeg  3.70349 -16.7542 -15.0948
RightLeg  17.1237 -2.99715 -1.04395
RightFoot  10.4146 -2.43632 13.004
RightToes  -1.74623e-010 0 -2.59999e-017
Spine  -0.845183 1.11456 1.87377
Spine1  14.2789 1.30172 -0.682226
HEad  -15.4762 50.9647 -24.198
LeftShoulder1  1.38764 -1.71216 -20.1452
LeftArm  3.27534 29.49 -47.526
LeftForeArm  72.3709 -78.5456 -53.2468
LeftHand  0.17677 2.71882 -8.57233
RightShoulder  3.17676 5.3571 29.9459
RightArm  -0.766031 -27.1626 43.9596
RightForeArm  133.958 72.3384 144.143
RightHand  0.219163 -11.91 -4.86578
LeftUpLeg  -4.49066 15.1489 8.72205
LeftLeg  18.1479 -6.59705 -2.12608
LeftFoot  14.3215 2.61038 -11.8159
LeftToes  -6.27559e-011 -2.10356e-011 8.24929e-012
171
root  0.128822 41.8962 65.1575 178.652 60.9779 179.127
RightUpLeg  2.52213 -16.6155 -12.3356
RightLeg  15.8126 -3.3837 -0.7643
RightFoot  10.3635 -2.19633 11.7963
RightToes  -1.74623e-010 0 -2.59999e-017
Spine  -3.92686 1.34547 3.77806
Spine1  15.9683 1.73327 -1.96919
HEad  -15.3118 49.6015 -23.197
LeftShoulder1  1.25377 -1.60522 -17.9301
LeftArm  5.7641 31.2052 -49.6913
LeftForeArm  70.4238 -78.8333 -58.4106
LeftHand  0.265818 1.57135 -8.48719
RightShoulder  2.7911 4.94623 27.0411
RightArm  3.59012 -30.8876 44.7497
RightForeArm  141.076 69.5218 150.193
RightHand  -0.186482 -7.7134 6.56724
LeftUpLeg  -6.40614 13.6721 9.52253
LeftLeg  18.0341 -4.19187 -1.26288
LeftFoot  13.5704 2.01008 -9.44088
LeftToes  -6.27559e-011 -2.10356e-011 8.24929e-012
